PathFileType	4	(X/Y/Z)	0_coords_data.trc
DataRate	CameraRate	NumFrames	NumMarkers	Units	OrigDataRate	OrigDataStartFrame	OrigNumFrames
30.0	30.0	5	21	m	30.0	43	53
Frame#	Time	THUMB_TIP	THUMB_IP	THUMB_MCP	THUMB_CMC	INDEX_TIP	INDEX_DIP	INDEX_PIP	INDEX_MCP	MIDDLE_TIP	MIDDLE_DIP	MIDDLE_PIP	MIDDLE_MCP	RING_TIP	RING_DIP	RING_PIP	RING_MCP	PINKY_TIP	PINKY_DIP	PINKY_PIP	PINKY_MCP	WRIST
X1	Y1	Z1	X2	Y2	Z2	X3	Y3	Z3	X4	Y4	Z4	X5	Y5	Z5	X6	Y6	Z6	X7	Y7	Z7	X8	Y8	Z8	X9	Y9	Z9	X10	Y10	Z10	X11	Y11	Z11	X12	Y12	Z12	X13	Y13	Z13	X14	Y14	Z14	X15	Y15	Z15	X16	Y16	Z16	X17	Y17	Z17	X18	Y18	Z18	X19	Y19	Z19	X20	Y20	Z20	X21	Y21	Z21
41	1.3999999999999937	0.5216957256778282	-0.020139286174731375	-0.15028898284739786	0.505270133734443	-0.018618637500336932	-0.13429249707962812	0.47704081726473113	-0.016253992399360984	-0.12139543752330764	0.4735938230564767	-0.02639262185215485	-0.07809166836002115	0.571320245825206	0.03341946522153044	-0.15890713849771457	0.5564896278261052	0.032349677230841534	-0.14856749036928552	0.5360144811232759	0.03001929866974712	-0.13416792314455245	0.502702873643285	0.02591870796606599	-0.10795422334883678	0.5788955438629314	0.004969566454307461	-0.14906933070225734	0.5715242274915586	0.015362103132227245	-0.13619847694847617	0.5547220092605925	0.027911424931264417	-0.11595966436218047	0.518656120064045	0.021707189437562224	-0.09032946694973251	0.5858621567700205	-0.0043337351899875864	-0.12493051492772952	0.5809551474438888	0.006615430538967015	-0.11147551476744916	0.567291935719264	0.01801253663913338	-0.09405131903537506	0.5313539806153084	0.007139113071724323	-0.07905288988863463	0.6034126091359344	-0.017512471968174737	-0.08622538489697637	0.5884445770067507	-0.014213000815619103	-0.0786049187502649	0.5695832255683648	-0.009959007507758855	-0.0704217053316635	0.5338497091059079	-0.01076865466996535	-0.06559017103083722	0.4622830810018608	-0.023011742144276925	-0.051989820119430985
42	1.4333333333333271	0.5185761594934046	-0.01883143277392485	-0.15237295337440365	0.5026660438808656	-0.017758201051727762	-0.1358285768413907	0.47512506184870595	-0.015271808701194267	-0.12154109414556641	0.47306428691730595	-0.026193256234416318	-0.0783396452061941	0.5716030084626547	0.03239347427102224	-0.15951297590265487	0.5568202315479909	0.03144221579633094	-0.149093541464759	0.5364119312553979	0.02916179056897561	-0.13459144599721398	0.5031659510700403	0.025154020387566145	-0.10828025686240242	0.5843335734106582	0.010244918099671096	-0.1487212449776783	0.57461433110341	0.018340847418074013	-0.1357600622598697	0.5555326730391673	0.027622679938220818	-0.11578138711392283	0.5191805092371072	0.02066228975987089	-0.09075697750104048	0.5921057858461892	-7.216509645097124e-05	-0.12350082734851936	0.5840517274343189	0.008757726732649629	-0.11000397018158739	0.5678944224717681	0.017528755222817827	-0.09320544243146009	0.5316235255231542	0.006196471296773531	-0.07939522123255971	0.6034122350663316	-0.020155189042503352	-0.08582599089080375	0.5884936222581689	-0.0163724331265781	-0.07833427883275876	0.5697059146128952	-0.01158004292520426	-0.0702802701045849	0.5339674864907942	-0.0112875564456561	-0.06542613186791524	0.4622830810018608	-0.023011742144276925	-0.05198982011943096
43	1.4666666666666603	0.5156244714663785	-0.017264324170202627	-0.15429990217944317	0.5002634407733694	-0.016686131498248713	-0.1372205453624395	0.47345897166037165	-0.014239998976686263	-0.1215886270138391	0.4725330338970306	-0.026012399401848352	-0.07857184857230462	0.5719182911497146	0.031553627981309895	-0.16010122309154995	0.5571650477698545	0.0305846884139781	-0.14964163582008122	0.5368128300382644	0.028264459501505856	-0.13506721973573385	0.5036326075622172	0.02429381008313619	-0.1086675441006732	0.5884886910314816	0.014728076351300301	-0.14791431914896563	0.5770118820212513	0.02063666394563013	-0.1352111129559281	0.5562576558063117	0.027026222492054386	-0.11577287266003372	0.519668916817511	0.019580489686494007	-0.09123773126656229	0.5968718322522332	0.0033431291215715864	-0.12188145836696246	0.5863976535086904	0.010056734061782757	-0.10883465460684211	0.5684175503062378	0.01653474334007049	-0.09286808754878073	0.5318806515711931	0.005230475844268501	-0.07975361458154134	0.6037355236043749	-0.021729052876914567	-0.08520548714392057	0.5886757319173295	-0.017850892131021923	-0.07805268744227811	0.5697886733257734	-0.01290413922430983	-0.07033124506153948	0.5340518801862142	-0.011963539421253	-0.06554790531708887	0.4622830810018609	-0.023011742144276925	-0.051989820119430985
45	1.5000000000000004	0.512886067599928	-0.015393581170683124	-0.15602465975633278	0.4981022816261812	-0.015318501352128033	-0.13843392255451853	0.47204511982169706	-0.013096981200805713	-0.12155466999665329	0.4720344541899907	-0.025770734917414828	-0.07878475237953561	0.5722039941314773	0.030923873513507838	-0.1606609277406815	0.5574749611604459	0.029840461441642985	-0.15017847545026736	0.5371727799159729	0.027378239618998046	-0.1355576432778956	0.5040647398872221	0.02342922820741622	-0.10906426508020556	0.5915810949971968	0.018159492892502127	-0.14695318254813788	0.5787008824296656	0.021904699981770193	-0.1347846350557826	0.5568113337242622	0.026086207719241583	-0.11600240407766801	0.5200795476950466	0.018586564521604065	-0.09169851204342669	0.6003522819471034	0.005531948614362292	-0.12057168087475029	0.5880366852128662	0.010297111971214024	-0.1082989755795774	0.5688020654011036	0.015079274941428356	-0.09322116748213616	0.5321007980222112	0.004337117627629672	-0.08009318732414308	0.6044712997244928	-0.021846349257391096	-0.08414121996759921	0.589044099836041	-0.018342721816357987	-0.07760469961222707	0.5698513097079952	-0.013694370113264964	-0.0704743663419557	0.5340907640824276	-0.012664862577250968	-0.06589103329765325	0.462283081001861	-0.023011742144276925	-0.05198982011943096
46	1.5333333333333339	0.5102590809006097	-0.013427910339847582	-0.15761448663141683	0.49611352072818227	-0.013895349020641823	-0.13951242518836746	0.4708232645008753	-0.012008605722339971	-0.12146628599785159	0.4715826157806504	-0.025541987412892764	-0.07896733347368085	0.5724624784576445	0.030450359282929995	-0.16120659924554723	0.5577572815985465	0.029188730343657432	-0.1507106248860717	0.537504892468548	0.026527934774488893	-0.13605556656253678	0.5044756884188739	0.02255136889741599	-0.10946807518651008	0.5940216202819715	0.021153599600785777	-0.14580504890090523	0.5800653052430459	0.02279783855159434	-0.1343806124243473	0.5572895972150022	0.02501083883101085	-0.11633125499576819	0.5204471085165014	0.017617122532897933	-0.0921628477912404	0.6030701876700456	0.00730495105841783	-0.11923141593785266	0.5893371419710903	0.01022606162104156	-0.10792342898564322	0.5691217693303677	0.013523700146505502	-0.09375853335764436	0.5322956769613731	0.003472646392148837	-0.0804342670267233	0.6052411557694419	-0.02149616157514428	-0.0829376754967392	0.5894309447634719	-0.01850623751844277	-0.07709836200268338	0.5699018071329861	-0.01430434024729238	-0.07063547861117467	0.5341077196608099	-0.01336555555417357	-0.06630126168834122	0.462283081001861	-0.023011742144276925	-0.051989820119430985
